<svg width="20" height="20" viewBox="0 0 20 20" fill="none" xmlns="http://www.w3.org/2000/svg">
<path fill-rule="evenodd" clip-rule="evenodd" d="M13.4933 2.50816C13.521 2.87193 13.5963 3.85829 12.6844 4.94103C12.0248 5.71122 11.2238 6.16246 10.3467 6.09541C10.2724 5.16575 10.6185 4.3412 11.2075 3.67431C11.7421 3.05272 12.6808 2.54712 13.4927 2.5L13.4933 2.50816ZM16.274 7.61473C15.1432 8.30155 14.5833 9.23303 14.5905 10.4689C14.5905 10.4707 14.5904 10.4739 14.5903 10.4784C14.5858 10.6408 14.5327 12.5559 16.6673 13.5624C16.2577 14.8019 14.8515 17.5547 13.215 17.5782C12.7567 17.5782 12.3903 17.437 12.0125 17.2914C11.6105 17.1365 11.1956 16.9766 10.6435 16.9766C10.0466 16.9766 9.59711 17.1467 9.17598 17.3061C8.81844 17.4415 8.48137 17.5691 8.09195 17.5782C6.47003 17.6271 4.91516 14.599 4.48386 13.363C4.16129 12.4243 4 11.5128 4 10.6302C4 7.64373 5.99523 6.17584 7.87267 6.14685C8.39385 6.14685 8.99593 6.36454 9.51022 6.5505C9.89362 6.68912 10.2282 6.81011 10.4442 6.81011C10.6188 6.81011 10.9036 6.70491 11.253 6.57586C11.8612 6.35125 12.665 6.05438 13.4234 6.11423C14.6847 6.21027 15.6416 6.70863 16.274 7.61473Z" fill="#1F1F1F"/>
</svg>
