<svg width="400" height="400" viewBox="0 0 400 400" fill="none" xmlns="http://www.w3.org/2000/svg"><g clip-path="url(#a)"><mask id="b" style="mask-type:luminance" maskUnits="userSpaceOnUse" x="0" y="0" width="400" height="400"><path d="M301 0H99C44.324 0 0 44.324 0 99v202c0 54.676 44.324 99 99 99h202c54.676 0 99-44.324 99-99V99c0-54.676-44.324-99-99-99Z" fill="#fff"/></mask><g mask="url(#b)"><path d="M200 400c110.457 0 200-89.543 200-200S310.457 0 200 0 0 89.543 0 200s89.543 200 200 200Z" fill="#DDD"/><mask id="c" style="mask-type:alpha" maskUnits="userSpaceOnUse" x="0" y="0" width="400" height="400"><path d="M200 400c110.457 0 200-89.543 200-200S310.457 0 200 0 0 89.543 0 200s89.543 200 200 200Z" fill="#DDD"/></mask><g mask="url(#c)"><path d="M200 712.5c158.782 0 287.5-95.139 287.5-212.5S358.782 287.5 200 287.5-87.5 382.639-87.5 500 41.218 712.5 200 712.5Z" fill="#03AAC7"/></g><mask id="d" style="mask-type:alpha" maskUnits="userSpaceOnUse" x="-88" y="287" width="576" height="426"><path d="M200 712.5c158.782 0 287.5-95.139 287.5-212.5S358.782 287.5 200 287.5-87.5 382.639-87.5 500 41.218 712.5 200 712.5Z" fill="#03AAC7"/></mask><g mask="url(#d)"><path d="M200 350c41.421 0 75-30.78 75-68.75s-33.579-68.75-75-68.75-75 30.78-75 68.75S158.579 350 200 350Z" fill="#F382AB"/></g><path d="M139.476 203.107c1.215 6.131 17.123 22.091 17.123 22.091s-19.616 10.01-29.393-7.166c-9.778-17.176 11.054-21.055 12.27-14.925Zm121.576 0c-1.216 6.131-17.124 22.091-17.124 22.091s19.616 10.01 29.393-7.166c9.778-17.176-11.054-21.055-12.269-14.925Z" fill="#3E2D32"/><path d="M237.5 250h-75v50h75v-50Z" fill="#F382AB"/><path d="M243.75 175c24.162 0 43.75-19.588 43.75-43.75S267.912 87.5 243.75 87.5 200 107.088 200 131.25 219.588 175 243.75 175Zm-87.5 0c24.162 0 43.75-19.588 43.75-43.75S180.412 87.5 156.25 87.5s-43.75 19.588-43.75 43.75S132.088 175 156.25 175Z" fill="#3E2D32"/><path d="M112.5 187.5c0-13.807 11.193-25 25-25h125c13.807 0 25 11.193 25 25s-11.193 25-25 25h-125c-13.807 0-25-11.193-25-25Z" fill="#F382AB"/><path d="M137.5 137.5c0-34.518 27.982-62.5 62.5-62.5s62.5 27.982 62.5 62.5V200c0 34.518-27.982 62.5-62.5 62.5s-62.5-27.982-62.5-62.5v-62.5Z" fill="#FF9DC0"/><path d="M125 103.333C125 73.878 147.25 50 174.697 50h57.728C256.441 50 275 70.893 275 96.667 275 122.44 256.441 150 232.425 150H125v-46.667Z" fill="#3E2D32"/><path d="M263.952 93.75c6.25 0 25-12.5 25-12.5s6.003 21.188-12.747 27.438-18.503-14.938-12.253-14.938Z" fill="#3E2D32"/></g></g><defs><clipPath id="a"><path fill="#fff" d="M0 0h400v400H0z"/></clipPath></defs></svg>