<svg width="72" height="72" viewBox="0 0 72 72" fill="none" xmlns="http://www.w3.org/2000/svg">
<g clip-path="url(#clip0_1327_60589)">
<g clip-path="url(#clip1_1327_60589)">
<path d="M0 0H72V72H0V0Z" fill="#1F1F1F"/>
<ellipse cx="35.9996" cy="23.1428" rx="12.8571" ry="12.8571" fill="white"/>
<path d="M15.0732 58.3721C11.9281 55.8726 11.6348 51.2544 14.5111 48.4498C19.9447 43.1516 27.5642 39.8571 36.0001 39.8571C44.436 39.8571 52.0554 43.1516 57.489 48.4498C60.3653 51.2544 60.072 55.8726 56.9269 58.3721C51.2745 62.8642 43.9727 65.5714 36.0001 65.5714C28.0274 65.5714 20.7256 62.8642 15.0732 58.3721Z" fill="white"/>
<mask id="mask0_1327_60589" style="mask-type:alpha" maskUnits="userSpaceOnUse" x="12" y="39" width="48" height="27">
<path d="M15.0731 58.3721C11.9281 55.8726 11.6348 51.2544 14.511 48.4498C19.9446 43.1516 27.5641 39.8571 36 39.8571C44.4359 39.8571 52.0554 43.1516 57.489 48.4498C60.3652 51.2544 60.0719 55.8726 56.9269 58.3721C51.2744 62.8642 43.9727 65.5714 36 65.5714C28.0273 65.5714 20.7255 62.8642 15.0731 58.3721Z" fill="white"/>
</mask>
<g mask="url(#mask0_1327_60589)">
<path d="M20.812 37.125H51.187L53.9995 67.5H17.9995L20.812 37.125Z" fill="#252727"/>
<path d="M35.9995 54.5625L21.3745 42.1875L35.9995 38.25L50.6245 42.1875L35.9995 54.5625Z" fill="#414141"/>
<path d="M35.9995 48.9375L21.3745 36.5625L35.9995 32.625L50.6245 36.5625L35.9995 48.9375Z" fill="white"/>
</g>
<g clip-path="url(#clip2_1327_60589)">
<rect width="72" height="72" rx="36" fill="#DDDDDD"/>
<path d="M25.1056 36.5593C25.3244 37.6628 28.1879 40.5358 28.1879 40.5358C28.1879 40.5358 24.657 42.3375 22.897 39.2458C21.137 36.1541 24.8868 35.4558 25.1056 36.5593Z" fill="#3E2D32"/>
<path d="M46.9893 36.5593C46.7705 37.6628 43.907 40.5358 43.907 40.5358C43.907 40.5358 47.4379 42.3375 49.1979 39.2458C50.9579 36.1541 47.2082 35.4558 46.9893 36.5593Z" fill="#3E2D32"/>
<rect x="29.25" y="45" width="13.5" height="9" fill="#F382AB"/>
<circle cx="43.875" cy="23.625" r="7.875" fill="#3E2D32"/>
<circle cx="28.125" cy="23.625" r="7.875" fill="#3E2D32"/>
<ellipse cx="36" cy="90" rx="51.75" ry="38.25" fill="#03AAC7"/>
<mask id="mask1_1327_60589" style="mask-type:alpha" maskUnits="userSpaceOnUse" x="-16" y="51" width="104" height="78">
<ellipse cx="36" cy="90" rx="51.75" ry="38.25" fill="#03AAC7"/>
</mask>
<g mask="url(#mask1_1327_60589)">
<ellipse cx="36" cy="50.625" rx="13.5" ry="12.375" fill="#F382AB"/>
</g>
<rect x="20.25" y="29.25" width="31.5" height="9" rx="4.5" fill="#F382AB"/>
<rect x="24.75" y="13.5" width="22.5" height="33.75" rx="11.25" fill="#FF9DC0"/>
<path d="M22.5 18.6C22.5 13.2981 26.505 9 31.4454 9H41.8366C46.1594 9 49.5 12.7608 49.5 17.4C49.5 22.0392 46.1594 27 41.8366 27H22.5V18.6Z" fill="#3E2D32"/>
<path d="M47.5113 16.875C48.6363 16.875 52.0113 14.625 52.0113 14.625C52.0113 14.625 53.0919 18.4389 49.7169 19.5639C46.3419 20.6889 46.3863 16.875 47.5113 16.875Z" fill="#3E2D32"/>
</g>
</g>
</g>
<path d="M36 71.5C16.3939 71.5 0.5 55.6061 0.5 36C0.5 16.3939 16.3939 0.5 36 0.5C55.6061 0.5 71.5 16.3939 71.5 36C71.5 55.6061 55.6061 71.5 36 71.5Z" stroke="#E3E3E3"/>
<defs>
<clipPath id="clip0_1327_60589">
<path d="M0 36C0 16.1177 16.1177 0 36 0V0C55.8823 0 72 16.1177 72 36V36C72 55.8823 55.8823 72 36 72V72C16.1177 72 0 55.8823 0 36V36Z" fill="white"/>
</clipPath>
<clipPath id="clip1_1327_60589">
<rect width="72" height="72" rx="30" fill="white"/>
</clipPath>
<clipPath id="clip2_1327_60589">
<rect width="72" height="72" rx="36" fill="white"/>
</clipPath>
</defs>
</svg>
