<svg width="600" height="425" viewBox="0 0 600 425" fill="none" xmlns="http://www.w3.org/2000/svg">
<g clip-path="url(#clip0_122_3497)">
<path opacity="0.2" d="M450.983 355.503C449.262 387.64 379.646 411.375 295.353 408.614C292.45 408.536 289.597 408.418 286.692 408.261C206.545 403.884 144.282 376.544 145.971 345.5C147.61 314.533 212.514 291.288 292.896 292.193C295.799 292.232 298.651 292.311 301.555 292.429C385.891 295.189 452.75 323.479 451.031 355.538L450.983 355.503Z" fill="#070707"/>
<path d="M398.943 346.093C397.678 357.894 356.638 366.272 307.194 364.841C305.491 364.798 303.818 364.74 302.114 364.668C255.116 362.663 218.794 352.308 220.031 340.908C221.237 329.536 259.508 321.315 306.672 322.045C308.375 322.074 310.049 322.117 311.752 322.175C361.221 323.606 400.232 334.333 398.97 346.106L398.943 346.093Z" fill="#070707"/>
<ellipse cx="292" cy="316" rx="93" ry="27" fill="black"/>
<path d="M576.995 117.123C586.989 127.325 580.898 149.397 563.408 166.471C562.809 167.061 562.219 167.633 561.597 168.198C544.413 183.896 523.371 188.734 513.733 178.878C504.094 169.024 509.421 148.131 525.523 131.318C526.105 130.716 526.69 130.13 527.293 129.554C544.783 112.481 567.02 106.932 576.995 117.123Z" fill="#34E0E6"/>
<path d="M576.995 117.124C586.988 127.326 580.898 149.397 563.408 166.471C562.809 167.061 562.219 167.633 561.597 168.198L525.512 131.337C526.093 130.735 526.679 130.148 527.282 129.572C544.772 112.499 567.009 106.951 576.984 117.142L576.995 117.124Z" fill="#545659"/>
<path d="M559.37 162.3C576.839 145.244 582.913 123.151 572.935 112.956C562.958 102.761 540.707 108.323 523.238 125.379C505.768 142.436 499.696 164.527 509.674 174.723C519.651 184.918 541.902 179.356 559.37 162.3Z" fill="#4D39FE"/>
<path d="M494.069 256.041C490.165 265.78 500.529 279.047 517.22 285.712C517.794 285.944 518.356 286.167 518.937 286.375C535.032 292.192 550.681 289.55 554.442 280.147C558.204 270.743 548.691 258.061 533.016 251.182C532.451 250.938 531.888 250.704 531.316 250.483C514.625 243.819 497.964 246.314 494.069 256.041Z" fill="#34E0E6"/>
<path d="M494.069 256.041C490.166 265.78 500.529 279.048 517.22 285.712C517.794 285.944 518.356 286.166 518.937 286.375L533.028 251.192C532.464 250.947 531.901 250.713 531.329 250.492C514.638 243.828 497.977 246.323 494.082 256.05L494.069 256.041Z" fill="#545659"/>
<path d="M518.784 281.744C502.112 275.085 491.754 261.799 495.649 252.068C499.544 242.338 516.218 239.848 532.891 246.507C549.563 253.166 559.92 266.452 556.025 276.183C552.129 285.913 535.456 288.403 518.784 281.744Z" fill="#FF5069"/>
<path d="M122.803 236.474L106.157 61.8066L133.307 66.8869L152.559 241.682L122.803 236.474Z" fill="#35E0E6"/>
<path d="M243.67 26.7322L288.172 28.2196L133.307 66.8868L106.156 61.8065L243.67 26.7322Z" fill="#03FFEE"/>
<path d="M152.559 241.682L303.974 183.554L288.172 28.2197L133.308 66.8865L152.559 241.682Z" fill="black"/>
<path d="M285.41 31.1809L301.253 182.048L274.499 192.202L155.284 237.439L136.525 69.0459L285.41 31.1809Z" fill="#242424"/>
<path d="M285.41 31.1808L301.253 182.048L274.5 192.201L259.441 37.9982L285.41 31.1808Z" fill="black"/>
<path d="M152.109 224.517L281.249 198.48L455.961 229.466L348.398 260.656L152.109 224.517Z" fill="white"/>
<path d="M151.788 224.415L279.911 198.725L455.935 229.453L353.416 261.016L151.788 224.415Z" fill="#242424"/>
<path d="M369.933 346.208L265.225 348.5L234.965 349.161L175.386 350.458L152.252 238.703L351.202 222.857L369.933 346.208Z" fill="#35E0E6"/>
<path d="M460.527 267.665L426.508 297.166L410.35 311.163L369.933 346.208L351.202 222.857L447.091 164.849L460.527 267.665Z" fill="#00A9BC"/>
<path d="M421.931 301.65L405.321 315.755C408.733 309.108 410.258 302.725 410.44 296.503C410.951 280.135 402.124 264.855 393.383 248.808C392.649 247.46 392.018 246.152 391.466 244.889C382.857 225.308 394.182 215.491 394.182 215.491L406.283 208.061C402.128 211.741 401.025 216.866 401.758 222.724C403.649 238.117 418.228 258.549 423.016 271.038C424.662 275.335 425.372 279.521 425.534 283.403C426.017 295.036 421.934 301.662 421.934 301.662L421.931 301.65Z" fill="#34E0E6"/>
<path d="M394.166 215.483C394.166 215.483 411.494 198.045 421.111 194.62C430.728 191.194 444.772 188.58 469.459 202.103C495.945 216.622 501.154 216.477 507.544 215.965C507.544 215.965 495.993 232.441 461.304 219.866C424.043 206.341 414.727 204.738 394.163 215.47L394.166 215.483Z" fill="#03FFEE"/>
<path d="M264.159 350.435L233.451 350.418C230.203 347.642 228.632 344.271 227.908 339.289C226.728 331.462 227.629 319.726 227.305 300.294C226.921 277.513 217.223 264.648 211.742 259.21C209.588 257.045 208.08 256.039 208.08 256.039L217.205 251.175L234.151 252.228C244.814 255.082 250.43 264.649 253.203 276.972C256.214 290.282 255.927 306.79 255.17 321.495C255.041 323.845 254.911 326.141 254.777 328.373C253.882 343.606 264.175 350.444 264.175 350.444L264.159 350.435Z" fill="#00A9BC"/>
<path d="M234.147 252.216C234.147 252.216 217.065 250.707 202.221 264.046C197.856 267.982 193.711 272.045 189.692 275.782C179.985 284.779 170.967 291.982 161.285 291.194C147.603 290.093 140.864 281.36 140.864 281.36C140.864 281.36 144.357 280.424 150.366 276.953C154.854 274.369 160.754 270.395 167.645 264.306C182.764 251 193.947 248.992 202.226 249.463C210.517 249.932 227.651 251.187 234.147 252.216Z" fill="#03FFEE"/>
<path d="M99.2499 255.976L128.412 257.63C128.412 257.63 145.663 289.362 161.289 291.206C161.289 291.206 131.363 288.691 123.571 283.925C115.782 279.172 99.2466 255.964 99.2466 255.964L99.2499 255.976Z" fill="#34E0E6"/>
<mask id="mask0_122_3497" style="mask-type:luminance" maskUnits="userSpaceOnUse" x="74" y="38" width="390" height="198">
<path d="M163.368 235.835L80.0664 220.067L74.3239 96.4867L254.15 38.7715L463.457 62.9328L437.035 167.56L351.862 220.423L163.368 235.835Z" fill="white"/>
</mask>
<g mask="url(#mask0_122_3497)">
<path d="M164.107 141.931C164.107 141.931 130.569 131.586 110.814 154.279C91.0491 176.986 122.438 196.089 132.636 196.823C142.837 197.568 172.993 191.94 163.359 167.219L153.21 157.341L166.509 142.791L164.116 141.915L164.107 141.931Z" fill="#242424"/>
<path d="M165.635 145.093C165.635 145.093 154.217 156.677 154.512 157.676C154.807 158.676 181.843 169.307 154.633 194.63C154.633 194.63 160.229 193.653 176.207 176.83C192.196 160.003 204.074 148.495 204.074 148.495L175.141 133.633L165.647 145.09L165.635 145.093Z" fill="#242424"/>
<path d="M154.493 157.675C154.493 157.675 183.538 171.733 154.614 194.624C139.406 206.663 107.666 196.307 104.333 175.959C101.013 155.608 113.747 145.509 129.396 139.527C148.391 132.266 180.6 137.479 204.054 174.604C227.51 211.728 221.912 272.511 221.912 272.511C221.912 272.511 201.542 265.169 195.522 240.816C189.502 216.462 205.51 187.016 185.525 159.544C165.54 132.071 121.073 136.297 109.524 161.622C97.9767 186.948 135.149 202.465 150.475 192.352C165.801 182.238 169.589 171.351 152.712 159.722" fill="#242424"/>
<path d="M167.665 142.333L153.203 157.353C153.203 157.353 165.158 162.354 165.632 174.631C166.105 186.909 147.152 198.299 135.853 196.635" stroke="white" stroke-miterlimit="10"/>
<path d="M107.786 154.627C107.786 154.627 150.928 101.462 195.788 79.7372C240.648 58.0126 283.602 91.4294 279.067 136.481C274.519 181.536 274.594 216.877 292.675 229.915C310.756 242.953 221.935 272.494 221.935 272.494C221.935 272.494 194.787 254.947 197.677 223.404C200.579 191.859 202.224 162.18 174.779 146.003C139.546 125.227 112.451 148.297 107.783 154.615L107.786 154.627Z" fill="#DCFFFB"/>
<g style="mix-blend-mode:multiply" opacity="0.54">
<path d="M215.072 162.7L214.842 158.568L262.791 124.657L263.036 128.799L215.072 162.7Z" fill="#FFAC68"/>
<path d="M215.585 177.571L215.324 173.82L263.485 139.214L263.75 142.976L215.585 177.571Z" fill="#FFAC68"/>
<path d="M214.654 194.012L214.676 190.225L259.695 156.965L259.673 160.753L214.654 194.012Z" fill="#FFAC68"/>
</g>
<path d="M389.053 87.2215C363.328 83.9993 338.825 110.621 334.322 146.666C329.823 182.723 347.038 214.557 372.762 217.779C398.486 221.002 422.99 194.38 427.493 158.335C431.992 122.278 414.777 90.4427 389.053 87.2215Z" fill="#545659"/>
<path d="M427.527 158.323C432.027 122.263 414.809 90.4249 389.082 87.2035C366.28 84.3566 344.438 104.931 336.642 134.766L335.148 146.758L427.542 158.333L427.527 158.323Z" fill="#D0D6D6"/>
<path d="M381.774 86.3093C356.049 83.0871 331.547 109.708 327.047 145.766C322.548 181.823 339.762 213.657 365.487 216.879C391.211 220.101 415.715 193.48 420.214 157.423C424.714 121.365 407.498 89.5305 381.774 86.3093Z" fill="#22C690"/>
<path d="M398.511 141.254C398.109 138.167 388.959 139.403 377.126 143.885L376.231 136.978L390.009 131.017L388.602 120.12L350.154 136.764L351.561 147.659L365.53 141.609L366.422 148.503C354.694 154.221 346.164 160.642 346.555 163.732C346.961 166.83 356.156 165.569 368.036 161.062L370.873 183.087L381.575 178.456L378.737 156.43C390.415 150.725 398.898 144.331 398.496 141.245L398.511 141.254ZM353.278 159.113C353.05 157.323 358.724 153.264 366.643 149.376L367.614 156.862C359.581 159.875 353.509 160.914 353.278 159.113ZM378.006 152.367L377.034 144.881C385.082 141.877 391.144 140.842 391.371 142.631C391.595 144.407 385.929 148.452 378.006 152.367Z" fill="white"/>
<path d="M342.377 188.441C345.855 201.393 343.594 214.547 337.147 225.202C331.045 235.258 321.21 243.065 308.935 246.348C283.689 253.099 257.736 238.119 250.961 212.887C250.414 210.85 250.018 208.827 249.752 206.795C246.666 183.597 261.208 161.183 284.416 154.977C309.662 148.226 335.615 163.205 342.39 188.438L342.377 188.441Z" fill="#545659"/>
<path d="M326.679 186.228L337.145 225.211C331.043 235.267 321.207 243.076 308.931 246.359C283.683 253.11 257.728 238.129 250.952 212.894C250.405 210.857 250.009 208.834 249.743 206.802L326.692 186.225L326.679 186.228Z" fill="#FE516A"/>
<path d="M314.152 244.938C339.388 238.19 354.357 212.27 347.585 187.047C340.813 161.824 314.864 146.847 289.627 153.595C264.391 160.344 249.422 186.263 256.194 211.486C262.966 236.709 288.915 251.686 314.152 244.938Z" fill="#FBE918"/>
<path d="M285.613 177.721L288.468 181.961C286.528 183.758 284.945 185.699 283.78 187.806C282.319 190.447 281.537 193.091 281.48 195.754C281.41 198.421 282.148 200.872 283.684 203.123C285.533 205.889 287.904 207.385 290.79 207.571C293.693 207.765 296.946 206.989 300.561 205.277L303.294 204.001L309.762 213.61C308.907 214.145 308.059 214.558 307.203 214.84C305.865 215.264 304.59 215.326 303.408 214.989C302.217 214.669 301.158 213.901 300.23 212.725L292.702 218.758C294.582 221.395 296.74 223.134 299.201 223.966C301.648 224.802 304.285 224.802 307.11 223.968C309.441 223.277 311.835 222.025 314.266 220.27L317.099 224.476L320.044 222.105L317.211 217.9C319.489 215.867 321.296 213.772 322.547 211.588C324.056 208.975 324.807 206.366 324.806 203.784C324.808 201.215 324.045 198.771 322.521 196.464C321.455 194.925 320.25 193.757 318.897 192.988C317.546 192.218 316.072 191.787 314.501 191.689C312.915 191.581 311.261 191.77 309.509 192.238C307.758 192.707 305.96 193.4 304.104 194.322L302.015 195.32L295.886 186.232C297.202 185.428 298.468 184.984 299.668 184.941C301.305 184.89 302.689 185.532 303.827 186.891L311.29 180.916C309.754 178.718 307.85 177.232 305.562 176.445C303.289 175.669 300.799 175.616 298.125 176.318C295.907 176.884 293.664 178.004 291.417 179.603L288.58 175.384L285.635 177.755L285.613 177.721ZM297.525 197.292C296.635 197.597 295.807 197.792 295.029 197.866C294.247 197.93 293.531 197.841 292.906 197.596C292.265 197.342 291.727 196.873 291.304 196.189C290.768 195.387 290.513 194.484 290.539 193.492C290.578 192.496 290.913 191.462 291.534 190.404C291.892 189.803 292.372 189.209 292.932 188.62L298.536 196.942C298.186 197.076 297.863 197.215 297.523 197.333L297.525 197.292ZM309.39 201.413C310.591 201.079 311.619 200.99 312.492 201.168C313.37 201.359 314.078 201.862 314.647 202.695C315.249 203.599 315.519 204.604 315.46 205.725C315.377 206.851 314.995 208.006 314.281 209.168C313.868 209.863 313.324 210.515 312.712 211.157L306.779 202.351C307.723 201.951 308.616 201.607 309.408 201.381L309.39 201.413Z" fill="#242424"/>
</g>
<path d="M292.838 377.758C292.245 388.347 273.011 395.865 249.838 394.58C249.04 394.542 248.256 394.49 247.458 394.425C225.431 392.626 208.408 383.334 208.988 373.105C209.553 362.901 227.489 355.524 249.594 356.18C250.392 356.205 251.176 356.244 251.974 356.296C275.159 357.581 293.442 367.206 292.851 377.77L292.838 377.758Z" fill="#070707"/>
<path d="M322.086 360.74C321.317 374.479 296.361 384.234 266.299 382.566C265.263 382.517 264.246 382.45 263.211 382.366C234.634 380.032 212.549 367.977 213.3 354.704C214.034 341.467 237.303 331.897 265.982 332.747C267.016 332.78 268.035 332.831 269.07 332.896C299.149 334.564 322.87 347.052 322.101 360.757L322.086 360.74Z" fill="white"/>
<path d="M322.084 360.74C321.317 374.479 296.361 384.234 266.299 382.566C265.263 382.517 264.246 382.45 263.21 382.366L265.965 332.747C266.999 332.78 268.018 332.831 269.052 332.896C299.133 334.564 322.853 347.052 322.084 360.757V360.74Z" fill="#070707"/>
<path d="M322.423 355.224C323.186 341.506 299.449 329.034 269.403 327.367C239.359 325.699 214.385 335.467 213.622 349.185C212.859 362.903 236.596 375.375 266.64 377.042C296.686 378.71 321.66 368.941 322.423 355.224Z" fill="#FF5069"/>
<path d="M334.236 352.037C333.469 365.775 308.513 375.53 278.451 373.862C277.415 373.813 276.397 373.746 275.362 373.662C246.784 371.328 224.7 359.273 225.452 346.002C226.186 332.763 249.455 323.193 278.134 324.043C279.168 324.077 280.187 324.127 281.221 324.193C311.301 325.861 335.022 338.349 334.253 352.054L334.236 352.037Z" fill="white"/>
<path d="M334.238 352.037C333.469 365.775 308.515 375.53 278.451 373.862C277.417 373.813 276.398 373.746 275.362 373.662L278.117 324.043C279.152 324.077 280.17 324.127 281.205 324.193C311.285 325.861 335.005 338.349 334.238 352.054V352.037Z" fill="#070707"/>
<path d="M334.579 346.523C335.342 332.805 311.603 320.334 281.559 318.666C251.515 317 226.541 326.768 225.778 340.486C225.015 354.203 248.752 366.676 278.796 368.343C308.84 370.011 333.816 360.241 334.579 346.523Z" fill="#FBE918"/>
<path d="M468.188 129.326C468.188 129.326 458.619 136.292 451.395 124.56C451.395 124.56 458.281 122.014 461.029 116.044C461.029 116.044 467.603 127.858 481.544 115.911C481.544 115.911 478.688 120.328 468.188 129.326Z" fill="#242424"/>
<path d="M480.605 119.294C483.247 116.308 484.662 112.64 484.296 108.47C484.018 105.374 482.911 102.408 481.467 99.6825C479.742 96.4679 477.516 93.512 475.083 90.7939C475.083 90.7939 471.05 96.3981 466.918 98.6293C466.918 98.6293 477.785 110.24 468.272 129.217C468.396 128.96 469.28 128.658 469.534 128.498C469.984 128.219 470.433 127.939 470.88 127.632C471.832 126.983 472.766 126.305 473.671 125.602C475.744 123.965 477.72 122.196 479.611 120.355C479.972 120.019 480.301 119.677 480.617 119.313L480.605 119.294Z" fill="#FFE900"/>
<path d="M66.9385 118.892C66.9385 118.892 67.8426 106.609 81.1151 108.477C81.1151 108.477 78.6371 115.697 81.322 121.827C81.322 121.827 68.4017 119.378 68.4275 138.451C68.4275 138.451 66.9722 133.253 66.9544 118.888L66.9385 118.892Z" fill="#242424"/>
<path d="M66.5921 134.703C67.1923 138.649 69.09 142.098 72.5069 144.486C75.0314 146.261 77.9995 147.323 80.9887 147.957C84.5319 148.7 88.1874 148.882 91.794 148.756C91.794 148.756 90.0843 142.06 90.9996 137.45C90.9996 137.45 75.2813 138.348 66.849 118.854C66.9627 119.119 66.6448 119.987 66.6058 120.284C66.537 120.817 66.4638 121.334 66.4207 121.868C66.3041 123.012 66.2391 124.16 66.2043 125.325C66.1358 127.977 66.234 130.618 66.4357 133.267C66.4734 133.754 66.5169 134.233 66.6021 134.709L66.5921 134.703Z" fill="#00FFF2"/>
</g>
<defs>
<clipPath id="clip0_122_3497">
<rect width="600" height="425" fill="white"/>
</clipPath>
</defs>
</svg>
