<svg width="16" height="16" viewBox="0 0 16 16" fill="none" xmlns="http://www.w3.org/2000/svg">
<mask id="path-1-inside-1_2323_67025" fill="white">
<path fill-rule="evenodd" clip-rule="evenodd" d="M1.00019 8.21973C2.18532 5.72496 4.72814 4.00016 7.67382 4.00016C10.6195 4.00016 13.1623 5.72497 14.3474 8.21973C13.1623 10.7145 10.6195 12.4393 7.67382 12.4393C4.72814 12.4393 2.18532 10.7145 1.00019 8.21973Z"/>
</mask>
<path d="M1.00019 8.21973L0.0969244 7.79063C-0.0320613 8.06216 -0.0320613 8.3773 0.0969244 8.64882L1.00019 8.21973ZM14.3474 8.21973L15.2507 8.64882C15.3797 8.3773 15.3797 8.06216 15.2507 7.79064L14.3474 8.21973ZM1.90345 8.64882C2.92919 6.48958 5.12856 5.00016 7.67382 5.00016V3.00016C4.32772 3.00016 1.44145 4.96035 0.0969244 7.79063L1.90345 8.64882ZM7.67382 5.00016C10.2191 5.00016 12.4184 6.48959 13.4442 8.64882L15.2507 7.79064C13.9062 4.96035 11.0199 3.00016 7.67382 3.00016V5.00016ZM13.4442 7.79064C12.4184 9.94987 10.2191 11.4393 7.67382 11.4393V13.4393C11.0199 13.4393 13.9062 11.4791 15.2507 8.64882L13.4442 7.79064ZM7.67382 11.4393C5.12856 11.4393 2.92919 9.94987 1.90345 7.79063L0.0969244 8.64882C1.44145 11.4791 4.32773 13.4393 7.67382 13.4393V11.4393Z" fill="#1F1F1F" mask="url(#path-1-inside-1_2323_67025)"/>
<circle cx="7.67424" cy="8.22013" r="2.10978" fill="#1F1F1F"/>
</svg>
