<svg width="43" height="40" viewBox="0 0 43 40" fill="none" xmlns="http://www.w3.org/2000/svg">
<path d="M2.12109 11C2.12109 4.92487 7.04596 0 13.1211 0H42.1211L2.12109 40V11Z" fill="#FF9142"/>
<path d="M22.3575 12.3813L19.324 7.89113L17.8815 9.33363L17.04 8.08205L21.212 3.91012L22.0605 5.15463L20.6109 6.60419L23.6444 11.0943L22.3575 12.3813Z" fill="white"/>
<path d="M18.4098 16.5836C17.13 17.8635 15.5673 17.9271 14.2803 16.6402C12.6752 15.0351 12.4418 12.4258 14.1955 10.6722C15.4824 9.38527 17.038 9.3287 18.325 10.6156C19.9372 12.2137 20.1705 14.8229 18.4098 16.5836ZM17.4906 15.3957C18.4028 14.4835 17.9361 12.8854 17.0734 12.0228C16.4087 11.3581 15.7087 11.2662 15.1218 11.8531C14.2096 12.7652 14.6763 14.3633 15.539 15.226C16.2037 15.8907 16.9037 15.9826 17.4906 15.3957Z" fill="white"/>
<path d="M10.8801 23.8586L7.00516 18.1169L8.29916 16.8229L9.77702 19.0079L11.467 17.3179L9.98915 15.1329L11.2761 13.846L15.151 19.5877L13.8641 20.8746L12.3085 18.5695L10.6185 20.2594L12.1741 22.5646L10.8801 23.8586Z" fill="white"/>
</svg>
