<svg width="24" height="26" viewBox="0 0 24 26" fill="none" xmlns="http://www.w3.org/2000/svg">
<g id="VIP 6">
<g id="&#231;&#188;&#150;&#231;&#187;&#132;-15">
<g id="&#231;&#188;&#150;&#231;&#187;&#132;-13">
<mask id="mask0_1463_105936" style="mask-type:alpha" maskUnits="userSpaceOnUse" x="0" y="0" width="24" height="26">
<g id="mask-2">
<path id="Vector" d="M12.3945 0.100051L23.6055 6.22666C23.8496 6.36006 24 6.60659 24 6.8734V19.1266C24 19.3934 23.8496 19.6399 23.6055 19.7733L12.3945 25.8999C12.1504 26.0333 11.8496 26.0333 11.6055 25.8999L0.394488 19.7733C0.150378 19.6399 0 19.3934 0 19.1266V6.8734C0 6.60659 0.150378 6.36006 0.394488 6.22666L11.6055 0.100051C11.8496 -0.0333504 12.1504 -0.0333504 12.3945 0.100051Z" fill="white"/>
</g>
</mask>
<g mask="url(#mask0_1463_105936)">
<path id="&#229;&#164;&#154;&#232;&#190;&#185;&#229;&#189;&#162;" d="M12.3945 0.100051L23.6055 6.22666C23.8496 6.36006 24 6.60659 24 6.8734V19.1266C24 19.3934 23.8496 19.6399 23.6055 19.7733L12.3945 25.8999C12.1504 26.0333 11.8496 26.0333 11.6055 25.8999L0.394488 19.7733C0.150378 19.6399 0 19.3934 0 19.1266V6.8734C0 6.60659 0.150378 6.36006 0.394488 6.22666L11.6055 0.100051C11.8496 -0.0333504 12.1504 -0.0333504 12.3945 0.100051Z" fill="#B0B0B0"/>
<path id="&#229;&#164;&#154;&#232;&#190;&#185;&#229;&#189;&#162;_2" fill-rule="evenodd" clip-rule="evenodd" d="M12.3942 0.56697L23.1782 6.4602C23.4223 6.5936 23.5727 6.84014 23.5727 7.10694V18.8934C23.5727 19.1602 23.4223 19.4067 23.1782 19.5401L12.3942 25.4334C12.1501 25.5668 11.8493 25.5668 11.6052 25.4334L0.821246 19.5401C0.577136 19.4067 0.426758 19.1602 0.426758 18.8934V7.10694C0.426758 6.84014 0.577136 6.5936 0.821246 6.4602L11.6052 0.56697C11.8493 0.433569 12.1501 0.433569 12.3942 0.56697Z" fill="#B0B0B0"/>
<g id="Group 1966">
<mask id="mask1_1463_105936" style="mask-type:alpha" maskUnits="userSpaceOnUse" x="0" y="0" width="24" height="26">
<path id="&#229;&#164;&#154;&#232;&#190;&#185;&#229;&#189;&#162;_3" fill-rule="evenodd" clip-rule="evenodd" d="M12.3942 0.56697L23.1782 6.4602C23.4223 6.5936 23.5727 6.84014 23.5727 7.10694V18.8934C23.5727 19.1602 23.4223 19.4067 23.1782 19.5401L12.3942 25.4334C12.1501 25.5668 11.8493 25.5668 11.6052 25.4334L0.821246 19.5401C0.577136 19.4067 0.426758 19.1602 0.426758 18.8934V7.10694C0.426758 6.84014 0.577136 6.5936 0.821246 6.4602L11.6052 0.56697C11.8493 0.433569 12.1501 0.433569 12.3942 0.56697Z" fill="#D6D6D6"/>
</mask>
<g mask="url(#mask1_1463_105936)">
<path id="&#231;&#159;&#169;&#229;&#189;&#162;" opacity="0.4" d="M18.1526 0.760065L16.3774 -2.15027L-2.498 8.16479L-0.722805 11.0751L18.1526 0.760065Z" fill="white"/>
<path id="&#231;&#159;&#169;&#229;&#189;&#162;&#229;&#164;&#135;&#228;&#187;&#189;-6" opacity="0.4" d="M24.0901 5.77776L22.3149 2.86743L-2.9662 16.6831L-1.191 19.5934L24.0901 5.77776Z" fill="white"/>
<path id="&#231;&#159;&#169;&#229;&#189;&#162;&#229;&#164;&#135;&#228;&#187;&#189;-7" opacity="0.4" d="M30.5003 16.7929L28.7251 13.8826L3.44395 27.6982L5.21915 30.6085L30.5003 16.7929Z" fill="white"/>
</g>
</g>
</g>
</g>
<g id="&#231;&#188;&#150;&#231;&#187;&#132;-14">
<mask id="mask2_1463_105936" style="mask-type:alpha" maskUnits="userSpaceOnUse" x="1" y="1" width="22" height="24">
<g id="mask-4">
<path id="Vector_2" d="M12.3948 1.96687L21.8976 7.15999C22.1417 7.29339 22.2921 7.53992 22.2921 7.80673V18.193C22.2921 18.4598 22.1417 18.7063 21.8976 18.8397L12.3948 24.0328C12.1507 24.1662 11.8499 24.1662 11.6058 24.0328L2.10298 18.8397C1.85887 18.7063 1.7085 18.4598 1.7085 18.193V7.80673C1.7085 7.53992 1.85887 7.29339 2.10298 7.15999L11.6058 1.96687C11.8499 1.83347 12.1507 1.83347 12.3948 1.96687Z" fill="white"/>
</g>
</mask>
<g mask="url(#mask2_1463_105936)">
<path id="Vector_3" fill-rule="evenodd" clip-rule="evenodd" d="M11.9998 2.05383C12.102 2.05383 12.2042 2.07885 12.2957 2.12887L21.7986 7.32199C21.8901 7.37201 21.9641 7.44325 22.0151 7.52699C22.0662 7.61074 22.0944 7.70699 22.0944 7.80704V18.1933C22.0944 18.3934 21.9816 18.5783 21.7986 18.6783L12.2957 23.8714C12.2042 23.9215 12.102 23.9465 11.9998 23.9465C11.8977 23.9465 11.7955 23.9215 11.704 23.8714L2.20114 18.6783C2.1096 18.6283 2.03563 18.5571 1.98455 18.4733C1.93347 18.3896 1.90527 18.2933 1.90527 18.1933V7.80704C1.90527 7.60694 2.01806 7.42204 2.20114 7.32199L11.704 2.12887C11.7955 2.07885 11.8977 2.05383 11.9998 2.05383Z" fill="url(#paint0_linear_1463_105936)" stroke="white" stroke-width="1.68513"/>
<path id="&#229;&#189;&#162;&#231;&#138;&#182;&#231;&#187;&#147;&#229;&#144;&#136;" fill-rule="evenodd" clip-rule="evenodd" d="M7.21665 8.47253H16.8816L18.1637 11.1797L11.9998 18.8343L5.83594 11.1797L7.21665 8.47253Z" fill="#ECECEC"/>
<path id="&#231;&#159;&#169;&#229;&#189;&#162;&#229;&#164;&#135;&#228;&#187;&#189;-9" fill-rule="evenodd" clip-rule="evenodd" d="M12.0005 18.8343L16.6704 23.3409L25.9185 17.5708L16.8823 8.4726L12.0005 18.8343Z" fill="url(#paint1_linear_1463_105936)"/>
<path id="&#231;&#159;&#169;&#229;&#189;&#162;_2" fill-rule="evenodd" clip-rule="evenodd" d="M7.21665 8.47253L9.48496 11.1797H5.83594L7.21665 8.47253Z" fill="#C6C8CC"/>
<path id="&#231;&#159;&#169;&#229;&#189;&#162;&#229;&#164;&#135;&#228;&#187;&#189;-8" fill-rule="evenodd" clip-rule="evenodd" d="M16.8825 8.47253L14.5155 11.1797H18.1646L16.8825 8.47253Z" fill="#C5C5C7"/>
<path id="&#231;&#159;&#169;&#229;&#189;&#162;_3" fill-rule="evenodd" clip-rule="evenodd" d="M11.9998 18.8341V11.1795H5.83594L11.9998 18.8341Z" fill="#F4F4F4"/>
<path id="&#231;&#159;&#169;&#229;&#189;&#162;_4" fill-rule="evenodd" clip-rule="evenodd" d="M11.9998 18.8341L9.48496 11.1795H5.83594L11.9998 18.8341Z" fill="#D5D7DC"/>
<path id="&#231;&#159;&#169;&#229;&#189;&#162;&#229;&#164;&#135;&#228;&#187;&#189;-9_2" fill-rule="evenodd" clip-rule="evenodd" d="M12.0007 18.8341L14.5155 11.1795H18.1646L12.0007 18.8341Z" fill="#C5C5C7"/>
<path id="&#231;&#159;&#169;&#229;&#189;&#162;_5" fill-rule="evenodd" clip-rule="evenodd" d="M11.9998 18.8341L7.97432 11.1795H5.83594L11.9998 18.8341Z" fill="#E6E6E6"/>
<path id="&#230;&#152;&#159;&#229;&#189;&#162;" fill-rule="evenodd" clip-rule="evenodd" d="M15.804 11.3841L15.3047 10.9329L15.9754 10.7784L16.4521 10.3058L16.6154 10.9407L17.1146 11.3919L16.4439 11.5464L15.9672 12.019L15.804 11.3841Z" fill="white"/>
<path id="&#231;&#159;&#169;&#229;&#189;&#162;_6" fill-rule="evenodd" clip-rule="evenodd" d="M11.9507 8.47253L14.5149 11.1797H11.9507V8.47253Z" fill="#F4F4F4"/>
</g>
</g>
</g>
</g>
<defs>
<linearGradient id="paint0_linear_1463_105936" x1="11.9998" y1="2.05383" x2="11.9998" y2="23.9465" gradientUnits="userSpaceOnUse">
<stop stop-color="#8B8B8B"/>
<stop offset="1" stop-color="#C7C7C7"/>
</linearGradient>
<linearGradient id="paint1_linear_1463_105936" x1="12.7589" y1="14.6245" x2="18.3803" y2="19.0193" gradientUnits="userSpaceOnUse">
<stop stop-color="#575757"/>
<stop offset="1" stop-color="#5E5E5E" stop-opacity="0"/>
</linearGradient>
</defs>
</svg>
