<svg width="36" height="36" viewBox="0 0 36 36" fill="none" xmlns="http://www.w3.org/2000/svg">
<circle cx="18" cy="18" r="18" fill="white"/>
<path d="M6.88892 14.8889V19.3334M29.1111 14.8889V19.3334M18 10.8889H25.1111C25.3566 10.8889 25.5556 11.0879 25.5556 11.3334V22.0001C25.5556 22.2455 25.3566 22.4445 25.1111 22.4445H10.8889C10.6435 22.4445 10.4445 22.2455 10.4445 22.0001V11.3334C10.4445 11.0879 10.6435 10.8889 10.8889 10.8889H18ZM18 10.8889V7.77783M10 26.0001H26" stroke="#0D0E0E" stroke-width="1.51111"/>
<path fill-rule="evenodd" clip-rule="evenodd" d="M15.3334 18.4442C15.0879 18.4442 14.8889 18.2452 14.8889 17.9998V15.3331C14.8889 15.0877 15.0879 14.8887 15.3334 14.8887H16.2222C16.4677 14.8887 16.6667 15.0877 16.6667 15.3331V17.9998C16.6667 18.2452 16.4677 18.4442 16.2222 18.4442H15.3334ZM19.7778 18.4442C19.5323 18.4442 19.3334 18.2452 19.3334 17.9998V15.3331C19.3334 15.0877 19.5323 14.8887 19.7778 14.8887H20.6667C20.9122 14.8887 21.1111 15.0877 21.1111 15.3331V17.9998C21.1111 18.2452 20.9122 18.4442 20.6667 18.4442H19.7778Z" fill="#1DA2B4"/>
<path d="M19.3334 7.77767C19.3334 8.51405 18.7365 9.111 18.0001 9.111C17.2637 9.111 16.6667 8.51405 16.6667 7.77767C16.6667 7.04129 17.2637 6.44434 18.0001 6.44434C18.7365 6.44434 19.3334 7.04129 19.3334 7.77767Z" fill="#0D0E0E"/>
</svg>
