<svg width="36" height="36" viewBox="0 0 36 36" fill="none" xmlns="http://www.w3.org/2000/svg">
<circle cx="18" cy="18" r="18" fill="white"/>
<path d="M23.3333 14.0002V12.6668C23.3333 9.72131 20.9455 7.3335 18 7.3335V7.3335C15.0545 7.3335 12.6666 9.72131 12.6666 12.6668V13.5557C12.6666 16.5012 15.0545 18.8891 18 18.8891V18.8891M13.5555 21.1113H12.6666C10.703 21.1113 9.11108 22.7031 9.11108 24.6668L9.11108 26.4446C9.11108 26.6901 9.31007 26.889 9.55553 26.889H26.4444C26.6899 26.889 26.8889 26.6901 26.8889 26.4446V24.6668C26.8889 22.7031 25.297 21.1113 23.3333 21.1113H22.4444" stroke="black" stroke-width="1.6"/>
<path fill-rule="evenodd" clip-rule="evenodd" d="M20.6666 19.3334C20.6666 19.5788 20.4676 19.7778 20.2222 19.7778L17.5555 19.7778C16.8191 19.7778 16.2222 19.1809 16.2222 18.4445L16.2222 17.5556C16.2222 17.3102 16.4212 17.1112 16.6666 17.1112L20.2222 17.1112C20.4676 17.1112 20.6666 17.3102 20.6666 17.5556L20.6666 19.3334Z" fill="#1DA2B4"/>
<path d="M10.8889 11.7776C10.8889 11.2866 11.2869 10.8887 11.7778 10.8887H12.2222C12.4677 10.8887 12.6667 11.0877 12.6667 11.3331V14.8887C12.6667 15.1341 12.4677 15.3331 12.2222 15.3331H11.7778C11.2869 15.3331 10.8889 14.9351 10.8889 14.4442V11.7776Z" fill="#0D0E0E"/>
<path d="M22.4443 11.3331C22.4443 11.0877 22.6433 10.8887 22.8888 10.8887H24.2221C24.713 10.8887 25.111 11.2866 25.111 11.7776V14.4442C25.111 14.9351 24.713 15.3331 24.2221 15.3331H22.8888C22.6433 15.3331 22.4443 15.1341 22.4443 14.8887V11.3331Z" fill="#0D0E0E"/>
</svg>
