<svg width="22" height="22" viewBox="0 0 22 22" fill="none" xmlns="http://www.w3.org/2000/svg">
<g clip-path="url(#clip0_5490_38449)">
<path d="M21.49 0.916656L12.05 7.74635L13.8055 3.72142L21.49 0.916656Z" fill="#E17726"/>
<path d="M0.532057 0.924713L8.19605 3.72191L9.86289 7.79961L0.532057 0.924713ZM17.6911 15.4415L21.8635 15.5192L20.4053 20.3627L15.3141 18.9921L17.6911 15.4415ZM4.30884 15.4415L6.67702 18.9921L1.59442 20.3628L0.145081 15.5192L4.30884 15.4415Z" fill="#E27625"/>
<path d="M9.63628 6.76095L9.80678 12.1457L4.70459 11.9187L6.1559 9.77788L6.17429 9.75729L9.63628 6.76095ZM12.3109 6.70087L15.8258 9.75746L15.844 9.77796L17.2953 11.9188L12.1942 12.1457L12.3109 6.70087ZM6.82647 15.4571L9.61239 17.5796L6.37616 19.1073L6.82647 15.4571ZM15.1741 15.4568L15.615 19.1074L12.3878 17.5794L15.1741 15.4568Z" fill="#E27625"/>
<path d="M12.4591 17.3795L15.7339 18.93L12.6876 20.3456L12.7193 19.41L12.4591 17.3795ZM9.54001 17.3802L9.29002 19.3947L9.31056 20.3445L6.2572 18.93L9.54001 17.3802Z" fill="#D5BFB2"/>
<path d="M8.59433 12.8485L9.4501 14.607L6.53656 13.7725L8.59433 12.8485ZM13.4055 12.8487L15.473 13.7725L12.55 14.6068L13.4055 12.8487Z" fill="#233447"/>
<path d="M7.04913 15.4392L6.5782 19.2238L4.05396 15.522L7.04913 15.4392ZM14.9511 15.4393L17.9464 15.522L15.4127 19.224L14.9511 15.4393ZM17.369 11.7047L15.1892 13.8769L13.5085 13.126L12.7039 14.78L12.1764 11.9357L17.369 11.7047ZM4.62991 11.7047L9.82354 11.9357L9.29597 14.78L8.49117 13.1262L6.81942 13.877L4.62991 11.7047Z" fill="#CC6228"/>
<path d="M4.48303 11.259L6.94927 13.706L7.03469 16.1217L4.48303 11.259ZM17.5195 11.2546L14.9632 16.126L15.0594 13.706L17.5195 11.2546ZM9.70296 11.408L9.80222 12.0189L10.0475 13.5408L9.88979 18.2148L9.14428 14.46L9.14402 14.4212L9.70296 11.408ZM12.2958 11.3996L12.8562 14.4212L12.8559 14.46L12.1085 18.2242L12.079 17.2827L11.9623 13.513L12.2958 11.3996Z" fill="#E27525"/>
<path d="M15.2786 13.6087L15.1952 15.7075L12.5935 17.6895L12.0676 17.3262L12.6571 14.3571L15.2786 13.6087ZM6.73035 13.6087L9.34276 14.3571L9.93229 17.3262L9.40635 17.6895L6.8046 15.7074L6.73035 13.6087Z" fill="#F5841F"/>
<path d="M5.75934 18.4665L9.08787 20.0086L9.07378 19.3501L9.3523 19.111H12.6466L12.9352 19.3492L12.9139 20.0073L16.2214 18.4704L14.6119 19.7708L12.6659 21.0777H9.32557L7.38081 19.7654L5.75934 18.4665Z" fill="#C0AC9D"/>
<path d="M12.2207 17.1743L12.6913 17.4994L12.967 19.6508L12.5679 19.3213H9.43328L9.04175 19.6574L9.3085 17.4995L9.77926 17.1743H12.2207Z" fill="#161616"/>
<path d="M20.8668 1.10571L22 4.4296L21.2923 7.79046L21.7962 8.17052L21.1143 8.67922L21.6269 9.06625L20.9482 9.6705L21.3648 9.96552L20.2592 11.2281L15.7242 9.93703L15.685 9.91644L12.417 7.221L20.8668 1.10571ZM1.13317 1.10571L9.58306 7.221L6.31503 9.91644L6.27576 9.93703L1.74084 11.2281L0.635164 9.96552L1.05145 9.67075L0.373227 9.06625L0.884727 8.67964L0.192586 8.16951L0.715516 7.7892L0 4.42977L1.13317 1.10571Z" fill="#763E1A"/>
<path d="M15.5024 9.6547L20.3074 11.0226L21.8685 15.727H17.75L14.9124 15.7619L16.9761 11.8287L15.5024 9.6547ZM6.49754 9.6547L5.02362 11.8287L7.08758 15.7619L4.25121 15.727H0.140137L1.69243 11.0227L6.49754 9.6547ZM14.0408 3.69897L12.6968 7.24822L12.4116 12.0428L12.3024 13.5457L12.2938 17.3847H9.7061L9.69768 13.5529L9.58819 12.0416L9.30288 7.24822L7.95907 3.69897H14.0408Z" fill="#F5841F"/>
</g>
<defs>
<clipPath id="clip0_5490_38449">
<rect width="22" height="20.1667" fill="white" transform="translate(0 0.916656)"/>
</clipPath>
</defs>
</svg>
