<svg width="43" height="40" viewBox="0 0 43 40" fill="none" xmlns="http://www.w3.org/2000/svg">
<path d="M2.12109 11C2.12109 4.92487 7.04596 0 13.1211 0H42.1211L2.12109 40V11Z" fill="#1CD8E9"/>
<path d="M8.24428 25.1607L4.36934 19.419L5.89669 17.8916L8.56248 19.1715L9.72921 19.8574L7.30383 16.4845L8.74633 15.042L12.6213 20.7837L11.0939 22.3111L8.41399 21.0171L7.26848 20.3382L9.68678 23.7182L8.24428 25.1607ZM13.3266 20.0784L9.45167 14.3367L13.0226 10.7658L13.9347 12.1163L11.8063 14.2447L12.3579 15.065L14.2034 13.2194L15.0873 14.5276L13.2418 16.3731L13.8569 17.2853L15.9853 15.1569L16.8975 16.5075L13.3266 20.0784ZM21.6411 11.7639L19.1874 9.67793L18.5935 9.11225L18.947 9.91835L20.1774 13.2276L18.4803 14.9247L13.3397 10.4487L14.8458 8.94254L17.653 11.679L18.353 12.4074L17.95 11.3821L16.4721 7.31619L17.6318 6.15654L20.6299 8.70212L21.33 9.33145L20.9057 8.42635L19.2511 4.53726L20.6936 3.09477L23.324 10.081L21.6411 11.7639Z" fill="white"/>
</svg>
