<svg width="38" height="16" viewBox="0 0 38 16" fill="none" xmlns="http://www.w3.org/2000/svg"><g clip-path="url(#a)"><path d="M.322 7.019A6.91 6.91 0 0 1 7.231.202h25.155c.225 0 .407.184.404.41l-.112 8.37a6.91 6.91 0 0 1-6.909 6.816H.614a.404.404 0 0 1-.404-.41l.112-8.37Z" fill="url(#b)" stroke="url(#c)" stroke-width=".404"/><mask id="f" style="mask-type:alpha" maskUnits="userSpaceOnUse" x="-1" y="-1" width="34" height="17"><path d="M.2 7.111A6.91 6.91 0 0 1 7.11.201h25.274c.225 0 .407.185.404.41l-.112 8.37a6.909 6.909 0 0 1-6.909 6.817H.604a.404.404 0 0 1-.404-.404V7.11Z" fill="url(#d)" stroke="url(#e)" stroke-width=".404"/></mask><g mask="url(#f)"><path d="m25.916-10.481-8.564-8.09-28.458 29.226 8.565 8.09L25.916-10.48Z" fill="url(#g)" style="mix-blend-mode:soft-light" opacity=".6"/><path d="m41.622 2.667-6-5.67-21.31 21.886 6 5.669 21.31-21.885Z" fill="url(#h)" style="mix-blend-mode:soft-light" opacity=".6"/></g><path d="M2.178 7.458a5.5 5.5 0 0 1 5.5-5.5h22.777c.134 0 .243.109.243.243v6.34a5.5 5.5 0 0 1-5.5 5.5H2.42a.242.242 0 0 1-.242-.242V7.46Z" fill="url(#i)"/><path d="M6.962 11.434v-6.8h1.69l2.15 3.57.52 1.08-.08-4.65h1.6v6.8h-1.69l-2.15-3.57-.52-1.09.08 4.66h-1.6Zm9.42.16c-1.63 0-2.64-1.08-2.64-2.85 0-1.83 1.04-2.86 2.64-2.86 1.63 0 2.65 1.1 2.65 2.86 0 1.82-1.05 2.85-2.65 2.85Zm0-1.24c.71 0 1.08-.56 1.08-1.61 0-1.04-.38-1.62-1.08-1.62-.7 0-1.07.57-1.07 1.62 0 1.04.38 1.61 1.07 1.61Zm3.282 1.08v-1.61h1.6v1.61h-1.6Zm2.518.01v-.38c0-2.87 3.32-2.76 3.32-4.15 0-.53-.31-.83-.83-.83-.59 0-.89.32-.98.86h-1.54c.17-1.3 1.11-2.1 2.53-2.1 1.54 0 2.35.93 2.35 2.05 0 1.84-2.58 2.11-3.21 3.38h3.2v1.17h-4.84Z" fill="#fff"/></g><defs><linearGradient id="b" x1="16.5" y1="0" x2="16.5" y2="16" gradientUnits="userSpaceOnUse"><stop stop-color="#B2C3C6"/><stop offset="1" stop-color="#D5E9EA"/></linearGradient><linearGradient id="c" x1="16.5" y1="0" x2="16.5" y2="16" gradientUnits="userSpaceOnUse"><stop stop-color="#C8D9D9"/><stop offset="1" stop-color="#9DB2B7"/></linearGradient><linearGradient id="d" x1="16.498" y1="0" x2="16.498" y2="16" gradientUnits="userSpaceOnUse"><stop stop-color="#AFC8C8"/><stop offset="1" stop-color="#E2E2E2"/></linearGradient><linearGradient id="e" x1="16.498" y1="0" x2="16.498" y2="16" gradientUnits="userSpaceOnUse"><stop stop-color="#FFCB44"/><stop offset="1" stop-color="#FA9A02"/></linearGradient><linearGradient id="g" x1="7" y1="10.5" x2="-1.112" y2="3.123" gradientUnits="userSpaceOnUse"><stop stop-color="#fff"/><stop offset="1" stop-color="#fff" stop-opacity="0"/></linearGradient><linearGradient id="h" x1="27" y1="7.5" x2="31.567" y2="11.931" gradientUnits="userSpaceOnUse"><stop stop-color="#fff"/><stop offset="1" stop-color="#fff" stop-opacity="0"/></linearGradient><linearGradient id="i" x1="16.488" y1="1.958" x2="16.488" y2="14.042" gradientUnits="userSpaceOnUse"><stop stop-color="#90A9AB"/><stop offset="1" stop-color="#B7CFD2"/></linearGradient><clipPath id="a"><path fill="#fff" d="M0 0h38v16H0z"/></clipPath></defs></svg>