<svg width="22" height="22" viewBox="0 0 22 22" fill="none" xmlns="http://www.w3.org/2000/svg">
<path d="M10.401 0.794778C10.7011 0.396626 11.2989 0.396625 11.599 0.794778L12.9886 2.6388C13.1879 2.90318 13.5369 3.00566 13.8474 2.89097L16.0135 2.091C16.4812 1.91827 16.9841 2.24147 17.0212 2.73864L17.1934 5.04126C17.218 5.37139 17.4562 5.64629 17.7795 5.7177L20.0342 6.21577C20.521 6.32331 20.7693 6.86709 20.5318 7.30543L19.4317 9.33557C19.274 9.62663 19.3258 9.98668 19.5591 10.2215L21.1866 11.8595C21.538 12.2132 21.4529 12.8049 21.0161 13.0452L18.9931 14.1583C18.703 14.3179 18.5519 14.6488 18.6213 14.9725L19.1048 17.2303C19.2092 17.7178 18.8178 18.1696 18.3204 18.1357L16.0167 17.9783C15.6864 17.9558 15.3804 18.1524 15.2637 18.4622L14.4498 20.6231C14.2741 21.0897 13.7005 21.2581 13.3004 20.9606L11.4475 19.5828C11.1819 19.3852 10.8181 19.3852 10.5525 19.5828L8.69955 20.9606C8.29948 21.2581 7.72589 21.0897 7.55016 20.6231L6.73628 18.4622C6.6196 18.1524 6.3136 17.9558 5.98332 17.9783L3.67964 18.1357C3.18224 18.1696 2.79076 17.7178 2.89517 17.2303L3.37874 14.9725C3.44807 14.6488 3.29697 14.3179 3.00692 14.1583L0.983894 13.0452C0.547091 12.8049 0.462014 12.2132 0.813412 11.8595L2.44089 10.2215C2.67423 9.98668 2.72599 9.62664 2.56827 9.33557L1.46819 7.30543C1.23066 6.86709 1.479 6.32331 1.96582 6.21577L4.2205 5.7177C4.54376 5.64629 4.78196 5.37139 4.80664 5.04126L4.97876 2.73864C5.01593 2.24147 5.51884 1.91827 5.98652 2.091L8.15255 2.89097C8.4631 3.00566 8.81211 2.90318 9.01135 2.6388L10.401 0.794778Z" fill="#B8B8B8"/>
<path opacity="0.9" d="M6.46921 10.1359C6.94653 9.65862 7.72039 9.65862 8.19771 10.1359L9.77791 11.7161L13.8026 7.69147C14.2798 7.21417 15.0537 7.21417 15.531 7.69147C16.0083 8.16879 16.0083 8.94265 15.531 9.41996L10.6421 14.3088C10.1648 14.7861 9.39097 14.7861 8.91366 14.3088L6.46921 11.8644C5.99191 11.3871 5.99191 10.6132 6.46921 10.1359Z" fill="#F6F6F6"/>
</svg>
