<svg width="428" height="230" viewBox="0 0 428 230" fill="none" xmlns="http://www.w3.org/2000/svg">
<path d="M54.9849 187.613L171.718 187.613L171.718 153.156L54.9849 153.156L54.9849 187.613Z" fill="#616161"/>
<path d="M171.479 153C161.952 153 154.229 160.739 154.229 170.285C154.229 179.832 161.952 187.571 171.479 187.571C181.006 187.571 188.73 179.832 188.73 170.285C188.73 160.739 181.006 153 171.479 153Z" fill="#C1B49A"/>
<path d="M53.2506 153C43.7234 153 36 160.739 36 170.285C36 179.832 43.7234 187.571 53.2506 187.571C62.7779 187.571 70.5012 179.832 70.5012 170.285C70.5012 160.739 62.7779 153 53.2506 153Z" fill="#393939"/>
<path d="M84.2506 8.24152e-05C74.7234 8.15823e-05 67 7.739 67 17.2854C67 26.8319 74.7234 34.5708 84.2506 34.5708C93.7779 34.5708 101.501 26.8319 101.501 17.2854C101.501 7.739 93.7779 8.32481e-05 84.2506 8.24152e-05Z" fill="#393939"/>
<path d="M410.256 64.0925H341.252V96.5169H410.256V64.0925Z" fill="#007383"/>
<path d="M341.251 96.5179C350.778 96.5179 358.501 89.2594 358.501 80.3057C358.501 71.3519 350.778 64.0935 341.251 64.0935C331.723 64.0935 324 71.3519 324 80.3057C324 89.2594 331.723 96.5179 341.251 96.5179Z" fill="#1DA2B4"/>
<path d="M410.251 96.521C419.778 96.521 427.501 89.2626 427.501 80.3089C427.501 71.3551 419.778 64.0967 410.251 64.0967C400.723 64.0967 393 71.3551 393 80.3089C393 89.2626 400.723 96.521 410.251 96.521Z" fill="#C1B49A"/>
<rect x="30" y="70" width="126.246" height="26.5781" rx="13.289" fill="#FFBA52"/>
<ellipse cx="43.3088" cy="83.289" rx="13.289" ry="13.289" fill="#FFD583"/>
<rect x="351.246" y="139.578" width="126.246" height="26.5781" rx="13.289" transform="rotate(-180 351.246 139.578)" fill="#FFD583"/>
<ellipse cx="337.937" cy="126.289" rx="13.289" ry="13.289" transform="rotate(-180 337.937 126.289)" fill="#C1B49A"/>
<rect x="267" y="155" width="101.993" height="26.5781" rx="13.289" fill="#007383"/>
<ellipse cx="355.704" cy="168.289" rx="13.289" ry="13.289" fill="#1DA2B4"/>
<ellipse cx="337.289" cy="42.289" rx="13.289" ry="13.289" fill="#05C3DD"/>
<ellipse cx="280.289" cy="168.289" rx="13.289" ry="13.289" fill="#9C69FF"/>
<rect x="75" y="112" width="99.0033" height="26.5781" rx="13.289" fill="#007383"/>
<ellipse cx="160.734" cy="125.621" rx="13.289" ry="13.289" fill="#05C3DD"/>
<ellipse cx="88.3088" cy="125.289" rx="13.289" ry="13.289" fill="#1DA2B4"/>
<path d="M354.251 229.571C363.778 229.571 371.501 221.832 371.501 212.285C371.501 202.739 363.778 195 354.251 195C344.723 195 337 202.739 337 212.285C337 221.832 344.723 229.571 354.251 229.571Z" fill="#FFD583"/>
</svg>
