<svg width="16" height="15" viewBox="0 0 16 15" fill="none" xmlns="http://www.w3.org/2000/svg">
<g id="Group">
<path id="Vector" d="M10.0013 0.685673C10.4695 0.685617 10.9294 0.808828 11.3349 1.04292C11.7404 1.277 12.0771 1.61372 12.3111 2.0192C12.5452 2.42469 12.6684 2.88465 12.6683 3.35284C12.6682 3.82103 12.5448 4.28094 12.3106 4.68634L15.3346 4.68567V6.01901H14.0013V12.6857C14.0013 12.8625 13.9311 13.0321 13.806 13.1571C13.681 13.2821 13.5114 13.3523 13.3346 13.3523H2.66797C2.49116 13.3523 2.32159 13.2821 2.19656 13.1571C2.07154 13.0321 2.0013 12.8625 2.0013 12.6857V6.01901H0.667969V4.68567L3.69197 4.68634C3.36121 4.1136 3.25509 3.43838 3.39422 2.79179C3.53335 2.1452 3.9078 1.57338 4.44486 1.18737C4.98192 0.801364 5.64326 0.628706 6.30047 0.702926C6.95768 0.777145 7.56386 1.09295 8.0013 1.58901C8.25103 1.30459 8.55868 1.07686 8.90361 0.921058C9.24855 0.765261 9.62281 0.685006 10.0013 0.685673ZM7.33464 6.01901H3.33464V12.019H7.33464V6.01901ZM12.668 6.01901H8.66797V12.019H12.668V6.01901ZM6.0013 2.01901C5.65531 2.01746 5.32227 2.15046 5.07253 2.38993C4.8228 2.62939 4.67592 2.95655 4.66294 3.3023C4.64996 3.64805 4.77189 3.9853 5.00296 4.24282C5.23404 4.50033 5.55617 4.65794 5.9013 4.68234L6.0013 4.68567H7.33464V3.35234C7.33465 3.03371 7.22056 2.72562 7.01303 2.48384C6.8055 2.24207 6.51825 2.08261 6.2033 2.03434L6.10064 2.02234L6.0013 2.01901ZM10.0013 2.01901C9.66492 2.0189 9.34092 2.14594 9.09427 2.37467C8.84762 2.6034 8.69653 2.9169 8.6713 3.25234L8.66797 3.35234V4.68567H10.0013C10.3377 4.68578 10.6617 4.55874 10.9083 4.33001C11.155 4.10128 11.3061 3.78778 11.3313 3.45234L11.3346 3.35234C11.3346 2.99872 11.1942 2.65958 10.9441 2.40953C10.6941 2.15948 10.3549 2.01901 10.0013 2.01901Z" fill="#027A95" stroke="#027A95" stroke-width="0.5"/>
</g>
</svg>
