<svg width="41" height="41" viewBox="0 0 41 41" fill="none" xmlns="http://www.w3.org/2000/svg">
<path d="M34.5938 30.0301H34.5961V30.0156L34.5938 30.0301Z" fill="white"/>
<path d="M36.7419 20.4977C36.7419 11.54 29.4541 4.25391 20.4982 4.25391C11.54 4.25391 4.25391 11.54 4.25391 20.4977C4.25391 29.4547 11.54 36.7414 20.4982 36.7414C29.4541 36.7414 36.7419 29.4547 36.7419 20.4977ZM20.4982 34.4107C12.8273 34.4107 6.58517 28.1675 6.58517 20.4977C6.58517 12.8268 12.8273 6.58525 20.4982 6.58525C28.1679 6.58525 34.4101 12.8268 34.4101 20.4977C34.4101 28.1675 28.1679 34.4107 20.4982 34.4107Z" fill="white"/>
<path d="M27.1548 25.5871L22.1321 20.5494L27.1502 15.5871C27.6057 15.1374 27.6091 14.4023 27.1593 13.9467C26.7096 13.4906 25.9733 13.4871 25.5177 13.938L20.495 18.9061L15.5471 13.9426C15.0939 13.4894 14.3599 13.4871 13.9055 13.9403C13.4523 14.3942 13.4523 15.1281 13.9032 15.5814L18.8453 20.538L13.8641 25.4651C13.4085 25.916 13.4039 26.6489 13.8549 27.1045C14.0827 27.3346 14.3795 27.4496 14.6786 27.4496C14.9731 27.4496 15.2699 27.3369 15.4954 27.1148L20.4835 22.1808L25.5108 27.2264C25.7375 27.453 26.0354 27.567 26.3333 27.567C26.6302 27.567 26.9257 27.453 27.1524 27.2287C27.6057 26.7767 27.6068 26.0426 27.1548 25.5871Z" fill="white"/>
</svg>
