<svg width="20" height="20" viewBox="0 0 20 20" fill="none" xmlns="http://www.w3.org/2000/svg">
<path d="M2.24166 9.17181C3.87849 8.26902 5.70566 7.51555 7.41287 6.75823C10.3499 5.51779 13.2987 4.29885 16.2772 3.16403C16.8567 2.97067 17.8979 2.78157 18 3.64147C17.9441 4.85866 17.7141 6.06873 17.5564 7.27879C17.156 9.93983 16.6932 12.5918 16.2419 15.244C16.0864 16.1275 14.9811 16.5848 14.2739 16.0195C12.5743 14.8699 10.8616 13.7316 9.18367 12.5554C8.63403 11.9962 9.14371 11.1931 9.6346 10.7938C11.0345 9.41243 12.519 8.23882 13.8457 6.78609C14.2036 5.92075 13.1462 6.65004 12.7974 6.87349C10.881 8.19583 9.0115 9.5989 6.99099 10.7611C5.95892 11.3299 4.75602 10.8438 3.72441 10.5263C2.79944 10.1429 1.44402 9.75657 2.24156 9.17187L2.24166 9.17181Z" fill="#0088E5"/>
</svg>
