<svg width="24" height="24" viewBox="0 0 24 24" fill="none" xmlns="http://www.w3.org/2000/svg">
<g id="Group 1533209637">
<path id="Union" fill-rule="evenodd" clip-rule="evenodd" d="M8 2C8.41042 2 8.76309 2.24725 8.91719 2.60092L10.6438 1.58098C10.1376 0.639808 9.14353 0 8 0C6.34315 0 5 1.34315 5 3V5H7V3C7 2.44772 7.44772 2 8 2ZM10.6377 1.58484L12.3416 4.4693L10.6196 5.48649L8.91569 2.60204L10.6377 1.58484Z" fill="#1CD8E9"/>
<path id="Union_2" fill-rule="evenodd" clip-rule="evenodd" d="M16 2C15.5896 2 15.2369 2.24725 15.0828 2.60092L13.3562 1.58098C13.8624 0.639808 14.8565 0 16 0C17.6569 0 19 1.34315 19 3V5H17V3C17 2.44772 16.5523 2 16 2ZM13.3623 1.58484L11.6584 4.4693L13.3804 5.48649L15.0843 2.60204L13.3623 1.58484Z" fill="#1CD8E9"/>
<path id="Rectangle 34626959" d="M1 5.5C1 5.22386 1.22386 5 1.5 5H22.5C22.7761 5 23 5.22386 23 5.5V8.5C23 8.77614 22.7761 9 22.5 9H1.5C1.22386 9 1 8.77614 1 8.5V5.5Z" stroke="#1F1F1F" stroke-width="2"/>
<path id="Rectangle 34626960" d="M3 9.5L21 9.5V22C21 22.2761 20.7761 22.5 20.5 22.5H3.5C3.22386 22.5 3 22.2761 3 22V9.5Z" stroke="#1F1F1F" stroke-width="2"/>
<rect id="Rectangle 34626965" x="8" y="4" width="2" height="19.5" fill="#1CD8E9"/>
<rect id="Rectangle 34626966" x="14" y="4" width="2" height="19.5" fill="#1CD8E9"/>
</g>
</svg>
