<svg width="120" height="94" viewBox="0 0 120 94" fill="none" xmlns="http://www.w3.org/2000/svg">
<g id="img" clip-path="url(#clip0_1775_27427)">
<g id="Group 1533208222">
<path id="Vector" d="M71.576 45.9412C82.7908 45.9412 91.882 36.8499 91.882 25.6351C91.882 14.4204 82.7908 5.3291 71.576 5.3291C60.3613 5.3291 51.2699 14.4204 51.2699 25.6351C51.2699 36.8499 60.3613 45.9412 71.576 45.9412Z" fill="#FCE917"/>
<rect id="Rectangle 172" x="23.3077" y="25.3022" width="97.1276" height="64.698" rx="11.4642" fill="#1CD8E9"/>
<rect id="Rectangle 173" x="78.5005" y="76.3843" width="33.2777" height="5.26279" rx="2.63139" fill="#1B1B1B"/>
<g id="Group 1533208058">
<g id="Group 1533208045">
<g id="Vector_2" filter="url(#filter0_b_1775_27427)">
<path d="M36.9557 68.2407C55.1567 68.2407 69.9115 53.4122 69.9115 35.1204C69.9115 16.8285 55.1567 2 36.9557 2C18.7548 2 4 16.8285 4 35.1204C4 53.4122 18.7548 68.2407 36.9557 68.2407Z" fill="url(#paint0_linear_1775_27427)" fill-opacity="0.5"/>
<path d="M36.9557 68.4907C55.2959 68.4907 70.1615 53.5491 70.1615 35.1204C70.1615 16.6916 55.2959 1.75 36.9557 1.75C18.6156 1.75 3.75 16.6916 3.75 35.1204C3.75 53.5491 18.6156 68.4907 36.9557 68.4907Z" stroke="#939393" stroke-width="0.5"/>
</g>
<g id="Group 1533208029" filter="url(#filter1_b_1775_27427)">
<path id="Vector_3" d="M34.6461 29.0673H45.2837L56.166 39.9205C56.8739 40.6266 56.8775 41.7749 56.1732 42.4845L42.2173 56.5633H31.2592L34.5721 53.3305L46.7356 41.1984L34.7265 29.0664" fill="url(#paint1_linear_1775_27427)" fill-opacity="0.5"/>
<path id="Vector_4" d="M39.0178 41.1722H28.3802L17.4979 30.319C16.79 29.613 16.7864 28.4647 17.4907 27.755L31.4466 13.6753H42.4047L39.0918 16.9081L26.9283 29.0402L38.9374 41.1722" fill="url(#paint2_linear_1775_27427)" fill-opacity="0.5"/>
</g>
</g>
</g>
</g>
</g>
<defs>
<filter id="filter0_b_1775_27427" x="-1.3464" y="-3.3464" width="76.6043" height="76.9335" filterUnits="userSpaceOnUse" color-interpolation-filters="sRGB">
<feFlood flood-opacity="0" result="BackgroundImageFix"/>
<feGaussianBlur in="BackgroundImageFix" stdDeviation="2.4232"/>
<feComposite in2="SourceAlpha" operator="in" result="effect1_backgroundBlur_1775_27427"/>
<feBlend mode="normal" in="SourceGraphic" in2="effect1_backgroundBlur_1775_27427" result="shape"/>
</filter>
<filter id="filter1_b_1775_27427" x="1.96472" y="-1.32471" width="69.7345" height="72.8882" filterUnits="userSpaceOnUse" color-interpolation-filters="sRGB">
<feFlood flood-opacity="0" result="BackgroundImageFix"/>
<feGaussianBlur in="BackgroundImageFix" stdDeviation="7.5"/>
<feComposite in2="SourceAlpha" operator="in" result="effect1_backgroundBlur_1775_27427"/>
<feBlend mode="normal" in="SourceGraphic" in2="effect1_backgroundBlur_1775_27427" result="shape"/>
</filter>
<linearGradient id="paint0_linear_1775_27427" x1="9.37883" y1="61.5185" x2="101.993" y2="-47.6134" gradientUnits="userSpaceOnUse">
<stop stop-color="#EBEBEB"/>
<stop offset="1" stop-color="#393939" stop-opacity="0"/>
</linearGradient>
<linearGradient id="paint1_linear_1775_27427" x1="31.8825" y1="37.4267" x2="38.3845" y2="18.2094" gradientUnits="userSpaceOnUse">
<stop stop-color="#B8B8B8"/>
<stop offset="1" stop-color="#393939" stop-opacity="0"/>
</linearGradient>
<linearGradient id="paint2_linear_1775_27427" x1="17.5881" y1="22.0356" x2="24.0901" y2="2.8183" gradientUnits="userSpaceOnUse">
<stop stop-color="#B8B8B8"/>
<stop offset="1" stop-color="#393939" stop-opacity="0"/>
</linearGradient>
<clipPath id="clip0_1775_27427">
<rect width="120" height="94" fill="white"/>
</clipPath>
</defs>
</svg>
