<svg width="26" height="26" viewBox="0 0 26 26" fill="none" xmlns="http://www.w3.org/2000/svg">
<g id="Frame" clip-path="url(#clip0_4070_22191)">
<path id="Vector" d="M23.3819 11.7137C22.3845 11.2724 20.9596 11.8639 19.9513 13.2939C19.2891 14.2328 19.0941 15.5697 18.2245 15.709C17.8923 15.7625 17.7117 15.5603 17.6178 15.2692C17.5189 14.7781 17.5406 14.019 17.724 12.9574L19.7029 4.06321C19.8603 3.3836 19.4913 2.72565 18.603 2.51115C17.7146 2.29665 17.0466 2.73215 16.8884 3.41176L15.1218 11.4761C14.7658 13.2571 14.1057 12.9335 14.2653 10.9164V10.9157L14.7716 1.46032C14.8127 0.72943 14.2508 0.132153 13.4203 0.100375C12.5897 0.068597 11.991 0.56693 11.9484 1.2971L11.466 10.9814C11.3627 12.9364 10.6628 12.1998 10.5112 10.7835L9.38884 2.94882C9.27401 2.20999 8.5814 1.69937 7.75084 1.83226C6.92028 1.96587 6.41834 2.65271 6.53317 3.39154L7.6129 10.5517C8.04117 13.2853 7.48145 14.0422 6.5599 11.0738L5.40867 6.72243C5.2209 6.02404 4.53262 5.59071 3.66812 5.83337C2.80362 6.07604 2.43095 6.77154 2.61801 7.46993L3.74323 11.5599C4.2134 14.5044 4.2134 15.6664 4.2134 17.6937C4.2134 19.721 5.14579 26 12.2777 26C19.4097 26 20.8765 18.7554 20.9444 18.2968C20.9444 18.2968 21.0332 17.2279 21.7793 16.2276C22.8402 14.8055 23.5848 13.9483 24.0362 13.4355C24.2652 13.1762 24.4876 12.2027 23.3819 11.7137Z" fill="#FFDC5D"/>
<path id="Vector_2" d="M17.9913 15.7018C17.7746 15.6137 17.5912 15.387 17.5695 14.8937C16.2031 15.0807 14.3549 15.4635 12.9329 16.8545C11.0869 18.6593 10.772 20.6101 10.7871 21.9151C10.7994 22.9674 11.3736 23.4657 11.5419 21.9065C11.7535 19.937 13.19 16.0254 17.9913 15.7018Z" fill="#EF9645"/>
</g>
<defs>
<clipPath id="clip0_4070_22191">
<rect width="26" height="26" fill="white"/>
</clipPath>
</defs>
</svg>
